Coordinates
version=1
nRows=8
nColumns=36
inDegrees=yes

Units are S.I. units (second, meters, Newtons, ...)
If the header above contains a line with 'inDegrees', this indicates whether rotational values are in degrees (yes) or radians (no).

endheader
time	pelvis_tilt	pelvis_list	pelvis_rotation	pelvis_tx	pelvis_ty	pelvis_tz	hip_flexion_r	hip_adduction_r	hip_rotation_r	knee_angle_r	knee_angle_r_beta	ankle_angle_r	subtalar_angle_r	mtp_angle_r	hip_flexion_l	hip_adduction_l	hip_rotation_l	knee_angle_l	knee_angle_l_beta	ankle_angle_l	subtalar_angle_l	mtp_angle_l	lumbar_extension	lumbar_bending	lumbar_rotation	arm_flex_r	arm_add_r	arm_rot_r	elbow_flex_r	pro_sup_r	arm_flex_l	arm_add_l	arm_rot_l	elbow_flex_l	pro_sup_l
      0.69000000	     -0.46094075	      2.08898273	      0.62385064	      0.73257370	      1.01266437	     -0.26980052	     -4.73109774	     -3.96820710	    -11.06342344	     46.14326929	      0.80535198	    -13.75875878	    -14.34175302	     -6.77873377	     23.58047495	      4.51840237	     -1.10386258	     20.08668611	      0.35057881	     -2.90045958	     -0.22523531	     -6.77873377	    -12.12969021	     -3.15666043	      5.89277203	      0.70496383	     -6.98374664	    -14.28035125	     44.70942706	    109.07440458	     -5.65771209	     -8.52755181	     -1.01052611	     34.24199973	    109.41899188
      0.70000000	     -0.33187429	      2.58552492	      0.66302757	      0.74582400	      1.01373333	     -0.27146074	     -2.75157700	     -5.25151678	    -11.17643921	     50.20450649	      0.87623394	    -16.67614670	    -14.97376486	     -6.78775549	     22.81646508	      5.21180838	     -1.01602391	     20.57351338	      0.35907555	     -1.80508895	     -0.56040992	     -6.78775549	    -12.37287155	     -3.70485955	      5.34102941	      0.50310373	     -6.72114209	    -14.28302923	     44.36662917	    109.09546238	     -5.10763225	     -8.52663942	     -0.43129127	     34.84091758	    109.43667343
      0.71000000	     -0.26363641	      2.98790138	      0.62888405	      0.75876927	      1.01470159	     -0.27279318	     -0.64831180	     -6.35522434	    -11.08742948	     54.05249130	      0.94339394	    -19.39695059	    -15.84482370	     -6.79500016	     22.11123906	      5.76386064	     -0.96570874	     21.01349930	      0.36675475	     -0.80375910	     -0.89875468	     -6.79500016	    -12.58138642	     -4.17177849	      4.84606667	      0.34940957	     -6.44741467	    -14.25118935	     43.96585124	    109.11554195	     -4.52159225	     -8.51617702	      0.15464527	     35.43923690	    109.46441917
      0.72000000	     -0.45755512	      3.12820163	      0.54393012	      0.77136114	      1.01534900	     -0.27372976	      1.79130252	     -6.98787290	    -10.77125744	     57.57843527	      1.00493327	    -22.69484992	    -18.35310858	     -6.81313669	     21.71564445	      5.98236431	     -0.97100458	     21.43370007	      0.37408864	     -0.16552283	     -1.18041700	     -6.81313669	    -12.45214185	     -4.35173095	      4.50565522	      0.22218996	     -6.26982706	    -14.15786348	     43.37000795	    109.19994418	     -3.90408674	     -8.59031163	      1.16098888	     36.03924619	    109.38097430
      0.73000000	     -0.24014022	      3.38482117	      0.41028391	      0.78402664	      1.01672810	     -0.27459448	      3.68927935	     -7.76801586	    -10.49252098	     60.73403747	      1.06000892	    -24.11996036	    -18.85188113	     -6.81929503	     20.67833634	      6.33144138	     -0.97395871	     21.53154113	      0.37579629	      0.89885706	     -1.37891185	     -6.81929503	    -12.80666077	     -4.64796258	      4.13210679	      0.11224835	     -6.06583414	    -14.08971701	     42.98452164	    109.22100534	     -3.11724025	     -8.51571480	      1.55047810	     36.45484359	    109.37111791
      0.74000000	     -0.31922703	      3.53018797	      0.21168381	      0.79647578	      1.01780080	     -0.27517207	      5.97040085	     -8.30872693	    -10.08722958	     63.66107069	      1.11109529	    -25.06041485	    -20.05979159	     -6.82838657	     19.94044169	      6.50644333	     -1.11505366	     21.53785354	      0.37590646	      1.69724864	     -1.40640371	     -6.82838657	    -12.79426211	     -4.83252345	      3.88335073	     -0.01459276	     -5.91365702	    -13.98820051	     42.39665213	    109.25659613	     -2.38950649	     -8.50910711	      2.16800776	     36.95826320	    109.35508199
      0.75000000	     -0.23525601	      3.53777000	      0.02034921	      0.80879261	      1.01934922	     -0.27558710	      7.96156516	     -8.58650852	     -9.70720479	     66.11414486	      1.15390951	    -25.06046579	    -20.96562954	     -6.83490579	     18.98326395	      6.52776930	     -1.22851550	     21.45213568	      0.37441040	      2.48095416	     -1.40036809	     -6.83490579	    -12.98666800	     -4.85014811	      3.61410303	     -0.07676024	     -5.78821674	    -13.89310242	     41.84874730	    109.27852019	     -1.54583333	     -8.44604628	      2.61904470	     37.32702874	    109.34569027
      0.76000000	     -0.14170143	      3.43461082	     -0.16169070	      0.82100214	      1.02112549	     -0.27585483	      9.87644507	     -8.63711174	     -9.33184100	     68.18022763	      1.18996946	    -24.36823149	    -21.69762646	     -6.84012194	     17.97561672	      6.42200613	     -1.30280961	     21.28456404	      0.37148572	      3.10860970	     -1.26983428	     -6.84012194	    -13.19304604	     -4.73947996	      3.32686934	     -0.12479523	     -5.67017503	    -13.81520532	     41.30125710	    109.29296531	     -0.68985302	     -8.37820504	      3.00807996	     37.65145914	    109.34646991
